<?xml version="1.0" encoding="UTF-8"?>
<svg version="1.1" xmlns="http://www.w3.org/2000/svg" width="870" height="848">
<path d="M0 0 C2.76160391 -0.003238 5.52319138 -0.01096496 8.28478658 -0.01845789 C14.27277445 -0.03231567 20.26068678 -0.03511972 26.24868774 -0.0304985 C35.15360318 -0.02364414 44.05844259 -0.03395235 52.96334746 -0.04745606 C69.79618415 -0.07232707 86.62898905 -0.07688694 103.46184118 -0.07499009 C116.46426421 -0.07361539 129.46667626 -0.07744265 142.46909714 -0.08491516 C144.33919461 -0.08596551 146.20929209 -0.08701313 148.07938956 -0.08805802 C149.47192435 -0.08883704 149.47192435 -0.08883704 150.89259116 -0.08963179 C152.28771998 -0.09041201 152.28771998 -0.09041201 153.71103323 -0.09120798 C154.64271399 -0.09173197 155.57439476 -0.09225597 156.53430828 -0.09279584 C182.72856386 -0.10737335 208.92281541 -0.11566422 235.11707497 -0.11104584 C236.59741979 -0.11078791 236.59741979 -0.11078791 238.10767056 -0.11052476 C243.10928898 -0.10963591 248.11090738 -0.1086911 253.11252578 -0.10772675 C254.10580511 -0.10753572 255.09908445 -0.10734469 256.12246315 -0.10714786 C258.1311145 -0.10676077 260.13976584 -0.10637044 262.14841719 -0.10597689 C293.39449711 -0.1000085 324.64050294 -0.11544037 355.88656616 -0.14758301 C391.01899304 -0.18369317 426.15137295 -0.2029881 461.28381956 -0.1980443 C465.03301771 -0.19757435 468.78221587 -0.19716409 472.53141403 -0.1967926 C473.45451147 -0.19669022 474.3776089 -0.19658783 475.32867898 -0.19648234 C489.23866829 -0.19528957 503.1486067 -0.20722785 517.05858231 -0.22593689 C532.88729944 -0.2472168 548.71591008 -0.25098007 564.54463203 -0.2316373 C573.39197911 -0.2213441 582.23906608 -0.22469644 591.0863894 -0.24816815 C597.01005945 -0.26248383 602.93353864 -0.25833351 608.85719607 -0.23972239 C612.22329243 -0.22964944 615.58847836 -0.22984531 618.95460506 -0.24704307 C654.55258671 -0.4164308 682.84345528 9.22244379 708.96420288 34.08190918 C733.99868399 59.83052763 740.37893632 91.92580157 740.28938293 126.67695618 C740.29356107 129.32550731 740.29892041 131.97403258 740.30570275 134.62257594 C740.31800882 140.35732559 740.31930849 146.09199335 740.31315231 151.82675171 C740.30402204 160.35501351 740.31212459 168.88320023 740.32344355 177.4114563 C740.34306866 192.64809214 740.34546586 207.88469388 740.34024835 223.12133935 C740.33568416 236.45736428 740.3362991 249.79337575 740.3420887 263.12940025 C740.34284558 264.92102059 740.34360156 266.71264092 740.34435664 268.50426125 C740.34550189 271.20435663 740.34665177 273.90445201 740.34781589 276.60454738 C740.35851457 301.69423802 740.36325263 326.7839242 740.35534573 351.87361622 C740.35489997 353.29107069 740.35489997 353.29107069 740.3544452 354.7371606 C740.35199648 362.41007045 740.34938478 370.08298025 740.34676107 377.75589005 C740.33666009 407.67976996 740.34501379 437.60359374 740.36825562 467.52746582 C740.39435141 501.17994423 740.40716997 534.83238886 740.40006787 568.48487777 C740.39935185 572.07590877 740.39867746 575.66693979 740.39802742 579.25797081 C740.39785761 580.14211445 740.3976878 581.02625809 740.39751285 581.93719397 C740.39521388 595.25935382 740.40316759 608.58148222 740.41631889 621.90363503 C740.43125606 637.06148569 740.43203863 652.21926282 740.41424798 667.37711195 C740.40471261 675.84916436 740.40606305 684.32104508 740.42348267 692.79308588 C740.43402426 698.46524979 740.42979917 704.13728384 740.41400263 709.8094351 C740.4054269 713.03252028 740.40505786 716.25520821 740.41827195 719.4782872 C740.55429837 755.21706937 731.63066124 784.96587636 706.65170288 811.08190918 C692.73826169 824.52635797 675.6206869 834.44843374 656.90170288 839.39440918 C656.07149085 839.64209944 655.24127882 839.88978971 654.38590884 840.14498574 C641.74575204 843.43202719 628.86853652 842.81393867 615.9034729 842.78208923 C613.14059469 842.78460605 610.37773184 842.7916225 607.61486125 842.79840904 C601.6210671 842.81074031 595.62735127 842.81200375 589.63354874 842.80585861 C580.72015065 842.79674472 571.80682463 842.8048179 562.89343205 842.81614985 C546.97032481 842.83579476 531.04725015 842.83816831 515.12413368 842.83295465 C501.18687479 842.82839361 487.24962878 842.82900147 473.3123703 842.834795 C471.44126105 842.83555187 469.5701518 842.83630785 467.69904254 842.83706294 C464.87927384 842.83820817 462.05950514 842.83935805 459.23973644 842.84052219 C433.03083186 842.85122407 406.82193156 842.85595569 380.61302567 842.84805202 C379.62548745 842.84775485 378.63794923 842.84745768 377.62048561 842.8471515 C369.60151942 842.84470268 361.58255329 842.84209104 353.56358716 842.83946737 C322.29085533 842.82936681 291.01817721 842.83771798 259.74545288 842.86096191 C224.58962484 842.8870499 189.43382913 842.89987825 154.27799106 842.89277416 C150.52742688 842.89205813 146.77686271 842.89138374 143.02629852 842.89073372 C141.64112922 842.89047901 141.64112922 842.89047901 140.2279767 842.89021915 C126.30470504 842.88791877 112.38146346 842.8958807 98.45819855 842.90902519 C82.61803602 842.92395294 66.77794384 842.92475757 50.93778279 842.90695428 C42.08095909 842.89740884 33.22429959 842.89879011 24.36748694 842.91618897 C18.44129188 842.92671304 12.51522131 842.92252971 6.58903842 842.90670893 C3.21911633 842.89811448 -0.15022456 842.89779747 -3.52017006 842.91097825 C-35.1361891 843.02580064 -61.75736952 836.25806141 -86.09829712 815.39440918 C-86.75829712 814.87878418 -87.41829712 814.36315918 -88.09829712 813.83190918 C-108.87814331 797.07396871 -121.47107258 769.06302121 -124.36211588 743.01767138 C-125.00543257 736.43034616 -125.24094211 729.92795717 -125.22693157 723.31189537 C-125.22868461 722.2473743 -125.23043765 721.18285322 -125.23224381 720.08607394 C-125.23688335 716.53091068 -125.23444358 712.9757887 -125.23200989 709.42062378 C-125.23387889 706.84112058 -125.23617995 704.26161766 -125.23887521 701.6821152 C-125.24401459 696.07971841 -125.24544896 690.47733025 -125.2444191 684.87493134 C-125.24289134 676.54353042 -125.24706219 668.21213903 -125.25229372 659.88073996 C-125.26195621 644.13291353 -125.26477756 628.38509036 -125.26535078 612.63726132 C-125.26581064 600.47376635 -125.26787062 588.31027266 -125.27105141 576.14677811 C-125.27194898 572.64325257 -125.27283879 569.13972704 -125.27372628 565.6362015 C-125.27394733 564.76516841 -125.27416838 563.89413532 -125.27439613 562.99670729 C-125.28054893 538.50146391 -125.28449683 514.00622098 -125.28405285 489.51097679 C-125.28403727 488.58776116 -125.28402169 487.66454553 -125.28400564 486.71335366 C-125.28392254 482.03430827 -125.28382349 477.35526287 -125.28372093 472.67621748 C-125.28370099 471.74697334 -125.28368104 470.81772921 -125.28366049 469.86032615 C-125.28362006 467.98116834 -125.28357826 466.10201053 -125.2835351 464.22285272 C-125.28292246 434.99145902 -125.29042749 405.76007691 -125.30410767 376.52868652 C-125.3194778 343.67284636 -125.32807333 310.81701382 -125.32714444 277.96116984 C-125.32706982 274.45575817 -125.32702111 270.95034651 -125.32699013 267.44493484 C-125.32697847 266.58184034 -125.32696682 265.71874583 -125.32695481 264.82949695 C-125.32692408 250.95755472 -125.33330204 237.08562258 -125.34192239 223.21368335 C-125.35041111 209.26478375 -125.35137928 195.31589888 -125.34481307 181.36699812 C-125.34112555 173.08768549 -125.34292586 164.80841768 -125.35275541 156.52910982 C-125.3594846 150.33621438 -125.35568039 144.14336639 -125.34788219 137.95047314 C-125.34634808 135.4532075 -125.34815996 132.95593697 -125.35374226 130.4586771 C-125.42673187 95.47701984 -120.0349592 65.84471159 -97.09829712 38.39440918 C-96.58009399 37.72925293 -96.06189087 37.06409668 -95.52798462 36.37878418 C-84.4987831 22.74469587 -67.8308258 12.63596658 -51.59829712 6.51940918 C-50.87618042 6.24516113 -50.15406372 5.97091309 -49.4100647 5.68835449 C-33.08065467 -0.0992845 -17.13445134 -0.03760091 0 0 Z " fill="#FEFEFE" transform="translate(128.09829711914063,2.6055908203125)"/>
<path d="M0 0 C2.76160391 -0.003238 5.52319138 -0.01096496 8.28478658 -0.01845789 C14.27277445 -0.03231567 20.26068678 -0.03511972 26.24868774 -0.0304985 C35.15360318 -0.02364414 44.05844259 -0.03395235 52.96334746 -0.04745606 C69.79618415 -0.07232707 86.62898905 -0.07688694 103.46184118 -0.07499009 C116.46426421 -0.07361539 129.46667626 -0.07744265 142.46909714 -0.08491516 C144.33919461 -0.08596551 146.20929209 -0.08701313 148.07938956 -0.08805802 C149.47192435 -0.08883704 149.47192435 -0.08883704 150.89259116 -0.08963179 C152.28771998 -0.09041201 152.28771998 -0.09041201 153.71103323 -0.09120798 C154.64271399 -0.09173197 155.57439476 -0.09225597 156.53430828 -0.09279584 C182.72856386 -0.10737335 208.92281541 -0.11566422 235.11707497 -0.11104584 C236.59741979 -0.11078791 236.59741979 -0.11078791 238.10767056 -0.11052476 C243.10928898 -0.10963591 248.11090738 -0.1086911 253.11252578 -0.10772675 C254.10580511 -0.10753572 255.09908445 -0.10734469 256.12246315 -0.10714786 C258.1311145 -0.10676077 260.13976584 -0.10637044 262.14841719 -0.10597689 C293.39449711 -0.1000085 324.64050294 -0.11544037 355.88656616 -0.14758301 C391.01899304 -0.18369317 426.15137295 -0.2029881 461.28381956 -0.1980443 C465.03301771 -0.19757435 468.78221587 -0.19716409 472.53141403 -0.1967926 C473.45451147 -0.19669022 474.3776089 -0.19658783 475.32867898 -0.19648234 C489.23866829 -0.19528957 503.1486067 -0.20722785 517.05858231 -0.22593689 C532.88729944 -0.2472168 548.71591008 -0.25098007 564.54463203 -0.2316373 C573.39197911 -0.2213441 582.23906608 -0.22469644 591.0863894 -0.24816815 C597.01005945 -0.26248383 602.93353864 -0.25833351 608.85719607 -0.23972239 C612.22329243 -0.22964944 615.58847836 -0.22984531 618.95460506 -0.24704307 C654.55258671 -0.4164308 682.84345528 9.22244379 708.96420288 34.08190918 C733.99868399 59.83052763 740.37893632 91.92580157 740.28938293 126.67695618 C740.29356107 129.32550731 740.29892041 131.97403258 740.30570275 134.62257594 C740.31800882 140.35732559 740.31930849 146.09199335 740.31315231 151.82675171 C740.30402204 160.35501351 740.31212459 168.88320023 740.32344355 177.4114563 C740.34306866 192.64809214 740.34546586 207.88469388 740.34024835 223.12133935 C740.33568416 236.45736428 740.3362991 249.79337575 740.3420887 263.12940025 C740.34284558 264.92102059 740.34360156 266.71264092 740.34435664 268.50426125 C740.34550189 271.20435663 740.34665177 273.90445201 740.34781589 276.60454738 C740.35851457 301.69423802 740.36325263 326.7839242 740.35534573 351.87361622 C740.35489997 353.29107069 740.35489997 353.29107069 740.3544452 354.7371606 C740.35199648 362.41007045 740.34938478 370.08298025 740.34676107 377.75589005 C740.33666009 407.67976996 740.34501379 437.60359374 740.36825562 467.52746582 C740.39435141 501.17994423 740.40716997 534.83238886 740.40006787 568.48487777 C740.39935185 572.07590877 740.39867746 575.66693979 740.39802742 579.25797081 C740.39785761 580.14211445 740.3976878 581.02625809 740.39751285 581.93719397 C740.39521388 595.25935382 740.40316759 608.58148222 740.41631889 621.90363503 C740.43125606 637.06148569 740.43203863 652.21926282 740.41424798 667.37711195 C740.40471261 675.84916436 740.40606305 684.32104508 740.42348267 692.79308588 C740.43402426 698.46524979 740.42979917 704.13728384 740.41400263 709.8094351 C740.4054269 713.03252028 740.40505786 716.25520821 740.41827195 719.4782872 C740.55429837 755.21706937 731.63066124 784.96587636 706.65170288 811.08190918 C692.73826169 824.52635797 675.6206869 834.44843374 656.90170288 839.39440918 C656.07149085 839.64209944 655.24127882 839.88978971 654.38590884 840.14498574 C641.74575204 843.43202719 628.86853652 842.81393867 615.9034729 842.78208923 C613.14059469 842.78460605 610.37773184 842.7916225 607.61486125 842.79840904 C601.6210671 842.81074031 595.62735127 842.81200375 589.63354874 842.80585861 C580.72015065 842.79674472 571.80682463 842.8048179 562.89343205 842.81614985 C546.97032481 842.83579476 531.04725015 842.83816831 515.12413368 842.83295465 C501.18687479 842.82839361 487.24962878 842.82900147 473.3123703 842.834795 C471.44126105 842.83555187 469.5701518 842.83630785 467.69904254 842.83706294 C464.87927384 842.83820817 462.05950514 842.83935805 459.23973644 842.84052219 C433.03083186 842.85122407 406.82193156 842.85595569 380.61302567 842.84805202 C379.62548745 842.84775485 378.63794923 842.84745768 377.62048561 842.8471515 C369.60151942 842.84470268 361.58255329 842.84209104 353.56358716 842.83946737 C322.29085533 842.82936681 291.01817721 842.83771798 259.74545288 842.86096191 C224.58962484 842.8870499 189.43382913 842.89987825 154.27799106 842.89277416 C150.52742688 842.89205813 146.77686271 842.89138374 143.02629852 842.89073372 C141.64112922 842.89047901 141.64112922 842.89047901 140.2279767 842.89021915 C126.30470504 842.88791877 112.38146346 842.8958807 98.45819855 842.90902519 C82.61803602 842.92395294 66.77794384 842.92475757 50.93778279 842.90695428 C42.08095909 842.89740884 33.22429959 842.89879011 24.36748694 842.91618897 C18.44129188 842.92671304 12.51522131 842.92252971 6.58903842 842.90670893 C3.21911633 842.89811448 -0.15022456 842.89779747 -3.52017006 842.91097825 C-35.1361891 843.02580064 -61.75736952 836.25806141 -86.09829712 815.39440918 C-86.75829712 814.87878418 -87.41829712 814.36315918 -88.09829712 813.83190918 C-108.87814331 797.07396871 -121.47107258 769.06302121 -124.36211588 743.01767138 C-125.00543257 736.43034616 -125.24094211 729.92795717 -125.22693157 723.31189537 C-125.22868461 722.2473743 -125.23043765 721.18285322 -125.23224381 720.08607394 C-125.23688335 716.53091068 -125.23444358 712.9757887 -125.23200989 709.42062378 C-125.23387889 706.84112058 -125.23617995 704.26161766 -125.23887521 701.6821152 C-125.24401459 696.07971841 -125.24544896 690.47733025 -125.2444191 684.87493134 C-125.24289134 676.54353042 -125.24706219 668.21213903 -125.25229372 659.88073996 C-125.26195621 644.13291353 -125.26477756 628.38509036 -125.26535078 612.63726132 C-125.26581064 600.47376635 -125.26787062 588.31027266 -125.27105141 576.14677811 C-125.27194898 572.64325257 -125.27283879 569.13972704 -125.27372628 565.6362015 C-125.27394733 564.76516841 -125.27416838 563.89413532 -125.27439613 562.99670729 C-125.28054893 538.50146391 -125.28449683 514.00622098 -125.28405285 489.51097679 C-125.28403727 488.58776116 -125.28402169 487.66454553 -125.28400564 486.71335366 C-125.28392254 482.03430827 -125.28382349 477.35526287 -125.28372093 472.67621748 C-125.28370099 471.74697334 -125.28368104 470.81772921 -125.28366049 469.86032615 C-125.28362006 467.98116834 -125.28357826 466.10201053 -125.2835351 464.22285272 C-125.28292246 434.99145902 -125.29042749 405.76007691 -125.30410767 376.52868652 C-125.3194778 343.67284636 -125.32807333 310.81701382 -125.32714444 277.96116984 C-125.32706982 274.45575817 -125.32702111 270.95034651 -125.32699013 267.44493484 C-125.32697847 266.58184034 -125.32696682 265.71874583 -125.32695481 264.82949695 C-125.32692408 250.95755472 -125.33330204 237.08562258 -125.34192239 223.21368335 C-125.35041111 209.26478375 -125.35137928 195.31589888 -125.34481307 181.36699812 C-125.34112555 173.08768549 -125.34292586 164.80841768 -125.35275541 156.52910982 C-125.3594846 150.33621438 -125.35568039 144.14336639 -125.34788219 137.95047314 C-125.34634808 135.4532075 -125.34815996 132.95593697 -125.35374226 130.4586771 C-125.42673187 95.47701984 -120.0349592 65.84471159 -97.09829712 38.39440918 C-96.58009399 37.72925293 -96.06189087 37.06409668 -95.52798462 36.37878418 C-84.4987831 22.74469587 -67.8308258 12.63596658 -51.59829712 6.51940918 C-50.87618042 6.24516113 -50.15406372 5.97091309 -49.4100647 5.68835449 C-33.08065467 -0.0992845 -17.13445134 -0.03760091 0 0 Z M63.90170288 36.39440918 C62.85498413 36.6754248 61.80826538 36.95644043 60.72982788 37.24597168 C39.48378253 43.61978529 23.49681647 58.85756581 12.90170288 77.94128418 C6.38415778 90.1384043 3.74012658 102.10085373 3.7674818 115.83323002 C3.76512957 116.64838619 3.76277734 117.46354237 3.76035383 118.30340025 C3.75370957 121.02833532 3.75412067 123.75322221 3.75453186 126.47816467 C3.7512304 128.45428363 3.74750424 130.43040192 3.74339038 132.40651935 C3.73339467 137.83224179 3.72965752 143.25795317 3.72700107 148.68368351 C3.72309091 154.53733165 3.7135132 160.39097108 3.70478821 166.24461365 C3.68597879 179.70939314 3.67577174 193.17417252 3.66732753 206.63896198 C3.66311635 213.2970255 3.65789503 219.95508816 3.652643 226.61315093 C3.63475671 249.41775295 3.61976162 272.22235525 3.61232281 295.02696323 C3.61184806 296.4576693 3.61137217 297.88837536 3.61089515 299.31908142 C3.61065877 300.02855829 3.61042239 300.73803517 3.61017885 301.46901134 C3.6089777 305.06336596 3.60776223 308.65772058 3.60653687 312.2520752 C3.60629672 312.96537521 3.60605657 313.67867523 3.60580914 314.4135904 C3.59791766 337.53617241 3.57448695 360.65870311 3.54198092 383.78126272 C3.50765234 408.24505231 3.48796894 432.70881189 3.48467857 457.17262596 C3.48426105 459.8602158 3.48378149 462.54780561 3.48325539 465.23539543 C3.48313219 465.89712431 3.483009 466.5588532 3.48288208 467.24063447 C3.48069798 477.213432 3.46734346 487.18615983 3.44821739 497.15893745 C3.42649956 508.50914806 3.41846545 519.85926486 3.42818417 531.20949388 C3.4327254 536.99766774 3.43085256 542.78564807 3.41142273 548.57379532 C3.39376644 553.87953376 3.39480899 559.18493785 3.41032002 564.49067997 C3.4126923 566.40321597 3.40839247 568.31577528 3.39649137 570.22827572 C3.27246112 591.48815814 8.13112696 610.60597224 21.90170288 627.39440918 C22.59135132 628.24776855 23.28099976 629.10112793 23.99154663 629.98034668 C37.65599259 646.04163036 56.93192368 656.33714724 77.90170288 658.39440918 C80.62913445 658.48362652 83.33022792 658.53428263 86.05661774 658.52863026 C86.84108359 658.53098249 87.62554944 658.53333472 88.43378699 658.53575823 C91.05433203 658.54239885 93.67482692 658.54199151 96.29537964 658.5415802 C98.19653953 658.54488189 100.09769872 658.5486081 101.99885702 658.55272168 C107.21742056 658.56271484 112.4359726 658.56645413 117.65454435 658.56911099 C123.28530583 658.57302194 128.91605827 658.58259962 134.54681396 658.59132385 C148.14100336 658.61106439 161.73519348 658.62115074 175.32939363 658.63005164 C181.73486012 658.63443789 188.14032578 658.63980377 194.54579163 658.64504051 C215.84443257 658.66204924 237.14307258 658.6765681 258.44171906 658.68378925 C259.81821445 658.684264 261.19470984 658.68473989 262.57120523 658.68521691 C263.25379618 658.68545329 263.93638713 658.68568967 264.63966266 658.68593321 C268.09777763 658.68713436 271.5558926 658.68834982 275.01400757 658.6895752 C275.70026966 658.68981535 276.38653175 658.6900555 277.09358966 658.69030292 C299.3361503 658.69819315 321.57865758 658.72162113 343.82119492 658.75413114 C367.35694296 658.7884683 390.89264829 658.80814282 414.42842436 658.81143349 C427.2503261 658.8135969 440.07214936 658.82232101 452.89402771 658.84789467 C463.81345459 658.86962393 474.73278392 658.87764102 485.65222996 658.86792789 C491.2197766 658.8633899 496.78712205 658.86524051 502.35464096 658.88468933 C507.45997347 658.90236904 512.56495873 658.90128428 517.67029518 658.88579204 C519.5088254 658.88342329 521.34737998 658.88770109 523.18587309 658.89962069 C537.60468631 658.98724861 551.43043794 657.58745259 564.33920288 650.51940918 C565.00476196 650.16773682 565.67032104 649.81606445 566.35604858 649.45373535 C568.21793836 648.45604261 570.06155049 647.43149855 571.90170288 646.39440918 C573.16240601 645.70411621 573.16240601 645.70411621 574.44857788 644.99987793 C592.39265486 634.16139348 604.54179514 614.88554937 609.65170288 594.95690918 C610.08472524 593.10649388 610.50259165 591.25243377 610.90170288 589.39440918 C611.07597362 588.67960014 611.25024437 587.96479111 611.42979604 587.22832119 C612.03438815 583.59760279 612.04040471 580.02913397 612.03033733 576.36041069 C612.03209037 575.55258278 612.03384341 574.74475487 612.03564957 573.91244733 C612.04031666 571.19441198 612.03784222 568.47642995 612.03541565 565.75839233 C612.03728327 563.79438646 612.03958378 561.83038095 612.04228097 559.86637604 C612.04841157 554.46035461 612.04826389 549.05434861 612.0470866 543.64832449 C612.0468829 537.82128758 612.05239839 531.99425566 612.05714417 526.16722107 C612.06545854 514.74676722 612.06819937 503.32631852 612.06875654 491.9058619 C612.0692314 482.62308367 612.07128463 473.34030714 612.07445717 464.05752945 C612.07535168 461.38589323 612.07624453 458.714257 612.07713205 456.04262078 C612.07735309 455.37844477 612.07757414 454.71426877 612.07780189 454.02996622 C612.08395709 435.34479593 612.08790236 416.65962622 612.08745861 397.97445488 C612.08744303 397.26983802 612.08742745 396.56522116 612.0874114 395.83925227 C612.08732829 392.26793999 612.08722925 388.6966277 612.08712669 385.12531541 C612.08710675 384.41603806 612.0870868 383.70676071 612.08706625 382.97599011 C612.08702582 381.54165703 612.08698402 380.10732395 612.08694086 378.67299087 C612.0863283 356.36397795 612.09383082 334.05498024 612.10751343 311.74597168 C612.12287923 286.68222965 612.13147932 261.6184976 612.13055021 236.55475056 C612.13017976 223.28418397 612.13297117 210.01363169 612.14372826 196.7430687 C612.15282935 185.4428275 612.15501176 174.14261121 612.14821883 162.84236793 C612.14495147 157.07704439 612.14490478 151.31176867 612.15357208 145.54644966 C612.1614285 140.26617089 612.16001435 134.98597791 612.15128795 129.70570125 C612.14975106 127.79786104 612.15157623 125.89001446 612.15714803 123.98218177 C612.23029378 97.15443007 604.89891271 76.11419109 586.27670288 56.33190918 C567.69617738 38.17950639 544.46753046 32.74997811 519.31616211 32.89320374 C517.39541825 32.88930195 515.47467729 32.88365451 513.55394304 32.87643284 C508.3231537 32.86178717 503.09266876 32.87179404 497.8618896 32.88616955 C492.20274227 32.89733741 486.54363562 32.88531781 480.88449097 32.87632751 C469.81857362 32.8624341 458.75277081 32.86992161 447.68685897 32.8850031 C434.79230695 32.90190502 421.89778314 32.89864782 409.00322346 32.89490902 C385.30158275 32.88886077 361.60000913 32.90460511 337.89838487 32.93009665 C316.2788663 32.95322561 294.65941463 32.95859249 273.03988647 32.94836426 C267.49945898 32.94576206 261.95903148 32.943177 256.4186039 32.94076633 C255.73642554 32.94046889 255.05424719 32.94017144 254.35139677 32.93986498 C236.25978521 32.93224615 218.16818141 32.93872462 200.07657182 32.94946235 C197.4829975 32.95098815 194.88942317 32.95250851 192.29584885 32.95402336 C191.01986431 32.95478118 189.74387977 32.95553899 188.42922903 32.95631977 C179.44482499 32.96105903 170.46043607 32.95921381 161.47603226 32.95495796 C150.52923003 32.950029 139.58249695 32.95602649 128.63571055 32.97585226 C123.05256181 32.98571539 117.46951832 32.99083975 111.88636398 32.98295975 C106.77305136 32.9758905 101.65995089 32.98273675 96.54666619 33.00056338 C94.69975396 33.00459964 92.85282231 33.00362185 91.00591739 32.99704451 C81.49279317 32.96607209 72.98346936 33.18573334 63.90170288 36.39440918 Z " fill="#010000" transform="translate(128.09829711914063,2.6055908203125)"/>
<path d="M0 0 C0.47566406 0.268125 0.95132813 0.53625 1.44140625 0.8125 C2.97629697 1.67181267 4.51448991 2.52523581 6.0546875 3.375 C8.19008196 4.55314867 10.31954992 5.74205982 12.4453125 6.9375 C32.14015924 17.87647016 51.21600956 21.46932753 73.46287537 21.38095093 C75.38260334 21.38441487 77.30232932 21.38918434 79.2220512 21.39513266 C84.45486804 21.40757131 89.6875192 21.40150499 94.92033637 21.39217401 C100.58029424 21.38535437 106.24022467 21.39587916 111.900177 21.40411377 C122.97156659 21.41742256 134.04289501 21.41458602 145.11428695 21.40587585 C154.11643445 21.39908812 163.11856486 21.39818729 172.12071419 21.4014473 C173.40418104 21.401907 174.68764788 21.40236669 176.01000767 21.40284032 C178.6177307 21.40379955 181.22545372 21.40477219 183.83317674 21.4057581 C207.56498025 21.41406033 231.2967468 21.40546462 255.02854443 21.38973031 C276.66138142 21.37549662 298.29416542 21.37676742 319.92700195 21.39111328 C344.26831033 21.40720157 368.60958267 21.41347814 392.9508968 21.40427649 C395.54908788 21.40332089 398.14727896 21.40237778 400.74547005 21.4014473 C402.02366941 21.40098447 403.30186878 21.40052164 404.61880146 21.40004479 C413.6043846 21.39746001 422.58994888 21.40181489 431.5755291 21.40888596 C442.53425687 21.41732056 453.49292022 21.41497972 464.45164066 21.39904372 C470.03755394 21.39118714 475.62336001 21.38802464 481.20927238 21.39799118 C486.33218569 21.40699302 491.45489334 21.40191561 496.57778824 21.38605852 C498.42147438 21.3827338 500.26517824 21.3843521 502.1088528 21.39168589 C525.66130782 21.47811589 547.60449729 16.92105297 567.78125 4.25390625 C570 3 570 3 573 3 C574.5871582 4.79394531 574.5871582 4.79394531 576.30078125 7.328125 C576.94096191 8.26293701 577.58114258 9.19774902 578.24072266 10.16088867 C579.26625244 11.68999878 579.26625244 11.68999878 580.3125 13.25 C581.76393323 15.37656811 583.21576309 17.50286555 584.66796875 19.62890625 C585.39677246 20.70285645 586.12557617 21.77680664 586.87646484 22.88330078 C589.91795544 27.34727744 593.01843568 31.76868389 596.125 36.1875 C597.27367732 37.82665489 598.42211508 39.46597767 599.5703125 41.10546875 C600.13524414 41.91161621 600.70017578 42.71776367 601.28222656 43.54833984 C604.1896209 47.69786428 607.09468001 51.84902306 610 56 C611.16665575 57.66667431 612.33332241 59.33334098 613.5 61 C620.5 71 627.5 81 634.5 91 C635.36782104 92.23943359 635.36782104 92.23943359 636.25317383 93.50390625 C637.41004905 95.15700091 638.56614709 96.81063977 639.72143555 98.46484375 C642.78148797 102.8441303 645.8577208 107.21088933 648.95703125 111.5625 C649.60220703 112.47257813 650.24738281 113.38265625 650.91210938 114.3203125 C652.15197305 116.06860948 653.39655541 117.81357239 654.64648438 119.5546875 C655.20271484 120.34101562 655.75894531 121.12734375 656.33203125 121.9375 C656.82421143 122.62714844 657.3163916 123.31679688 657.82348633 124.02734375 C659.01790092 126.0300144 659.56502361 127.72091493 660 130 C642.98949436 141.55003268 626.58839377 148.16388971 605.8786869 148.13422108 C604.7613765 148.13657331 603.6440661 148.13892554 602.49289781 148.14134905 C598.73407585 148.14802702 594.97528857 148.14758118 591.21646118 148.14717102 C588.5001658 148.14992319 585.78387317 148.15415847 583.06757963 148.1583125 C576.37557747 148.16762825 569.68358193 148.17155882 562.9915741 148.17383147 C554.97558782 148.17679622 546.9596103 148.18549525 538.94362862 148.19424575 C519.56865486 148.21508026 500.19367959 148.22555849 480.81869725 148.23437535 C471.65080225 148.23858339 462.4829079 148.24380517 453.31501345 148.24905988 C421.92532534 148.26694945 390.53563704 148.28194485 359.1459446 148.28938007 C357.17564053 148.28985483 355.20533647 148.29033072 353.2350324 148.29080774 C352.25795047 148.29104411 351.28086854 148.29128049 350.27417806 148.29152403 C345.32389865 148.29272521 340.37361925 148.29394066 335.42333984 148.29516602 C333.94975024 148.29552624 333.94975024 148.29552624 332.44639115 148.29589374 C300.60078668 148.30378522 268.75521947 148.32721425 236.90963127 148.35972196 C203.23194033 148.39403703 169.55427119 148.41373277 135.87656248 148.41702431 C132.1778643 148.41744184 128.47916615 148.41792141 124.78046799 148.41844749 C123.86976036 148.41857069 122.95905274 148.41869388 122.02074792 148.4188208 C107.37866878 148.42115074 92.736633 148.43679918 78.0945693 148.45728934 C63.36998895 148.47756768 48.64546055 148.48301514 33.92086883 148.47351871 C25.17939586 148.46831156 16.43809612 148.47414396 7.69664816 148.49605338 C1.84838243 148.5096002 -3.99976458 148.50845036 -9.84803161 148.49565142 C-13.17440036 148.48878031 -16.50017167 148.49023882 -19.82655291 148.50521151 C-36.50333044 148.57560451 -53.267304 148.52050907 -68.3125 140.3125 C-68.95638672 139.97798828 -69.60027344 139.64347656 -70.26367188 139.29882812 C-76.66907097 135.85853959 -82.38085783 131.59747996 -88 127 C-86.6683183 123.33868831 -85.03817118 120.36488018 -82.796875 117.18359375 C-82.15331055 116.26465332 -81.50974609 115.34571289 -80.84667969 114.39892578 C-80.15477539 113.42165527 -79.46287109 112.44438477 -78.75 111.4375 C-77.67733887 109.90971924 -77.67733887 109.90971924 -76.58300781 108.35107422 C-75.10681569 106.24908371 -73.62861296 104.14850384 -72.1484375 102.04931641 C-69.58273524 98.40776854 -67.0316285 94.75618254 -64.48144531 91.10375977 C-59.18933797 83.52750965 -53.8679282 75.97215883 -48.53369141 68.42553711 C-42.92375324 60.48476132 -37.35372936 52.51610613 -31.78222656 44.54833984 C-30.01950169 42.02788475 -28.25601516 39.50796471 -26.4921875 36.98828125 C-25.91484863 36.16352295 -25.33750977 35.33876465 -24.74267578 34.48901367 C-23.58762174 32.83928322 -22.43235085 31.18970457 -21.27685547 29.5402832 C-18.20437539 25.15356559 -15.13754422 20.76302627 -12.078125 16.3671875 C-11.43746094 15.44808594 -10.79679687 14.52898438 -10.13671875 13.58203125 C-8.90330087 11.81234472 -7.67146244 10.04155604 -6.44140625 8.26953125 C-5.88839844 7.47675781 -5.33539063 6.68398438 -4.765625 5.8671875 C-4.27868164 5.16706543 -3.79173828 4.46694336 -3.29003906 3.74560547 C-2 2 -2 2 0 0 Z " fill="#FE4C5A" transform="translate(148,668)"/>
<path d="M0 0 C2.37682663 2.09340693 4.69640265 4.24137407 6.99707031 6.41796875 C9.37953037 8.68247768 9.37953037 8.68247768 12.00878906 10.71875 C41.14542399 34.18992814 56.90344775 77.40909801 61.09033203 113.28369141 C64.26499479 147.80376057 59.11981908 186.11121601 36.39941406 213.64453125 C35.72394531 214.49402344 35.04847656 215.34351563 34.35253906 216.21875 C23.76556664 228.83424816 8.8417183 237.39684627 -7.60058594 239.64453125 C-25.27764862 240.63704009 -41.01666484 239.64289149 -55.02636719 227.55078125 C-58.17749095 224.46302561 -61.11204202 221.29792552 -63.60058594 217.64453125 C-63.60058594 216.98453125 -63.60058594 216.32453125 -63.60058594 215.64453125 C-66.74805349 218.75994719 -69.83477168 221.92592673 -72.90136719 225.12109375 C-104.23476011 257.48073062 -104.23476011 257.48073062 -125.04418945 257.88671875 C-149.48613034 257.97683767 -170.44675935 241.87713382 -187.60058594 225.64453125 C-188.86684625 224.55585623 -190.13759345 223.47237511 -191.41308594 222.39453125 C-201.02759144 213.98670457 -209.83354279 204.78370799 -217.60058594 194.64453125 C-218.02549316 194.09603516 -218.45040039 193.54753906 -218.88818359 192.98242188 C-240.58613172 164.8430174 -257.87951529 131.05753426 -254.60058594 94.64453125 C-252.46039298 79.33981806 -245.27203111 65.73180553 -233.60058594 55.64453125 C-229.77012646 52.85694525 -225.8934615 50.63931854 -221.60058594 48.64453125 C-220.83746094 48.28617187 -220.07433594 47.9278125 -219.28808594 47.55859375 C-203.81340208 41.70185576 -185.15203661 45.86280591 -170.59667969 52.37109375 C-156.64050892 59.08915922 -143.54585905 70.20586658 -135.16308594 83.26953125 C-134.64746094 84.05328125 -134.13183594 84.83703125 -133.60058594 85.64453125 C-132.94058594 85.64453125 -132.28058594 85.64453125 -131.60058594 85.64453125 C-130.41880288 84.27487499 -129.30661678 82.84502833 -128.22558594 81.39453125 C-115.65623276 65.34128126 -97.60977288 49.36656961 -76.60058594 46.64453125 C-57.46628075 45.48821353 -42.1191874 47.75128374 -26.60058594 59.64453125 C-25.77300781 60.25167969 -24.94542969 60.85882813 -24.09277344 61.484375 C-14.13364303 70.11666201 -8.74736766 82.75070289 -7.60058594 95.64453125 C-6.95852429 106.04166627 -7.57158333 115.62385236 -10.60058594 125.64453125 C-10.81569824 126.38622559 -11.03081055 127.12791992 -11.25244141 127.89208984 C-16.33424751 145.21439021 -23.87452702 161.19398031 -33.3815918 176.52661133 C-35.75361633 180.64784361 -35.97891997 183.95318931 -35.60058594 188.64453125 C-33.84160318 194.31342675 -31.74492127 198.39547736 -26.60058594 201.64453125 C-21.53936516 204.17514164 -14.11280988 203.25009487 -8.76464844 201.9609375 C4.49292197 197.04543832 11.50454033 185.38258081 17.21191406 173.01953125 C29.19258498 141.23747368 25.19316327 104.68780545 11.44628906 74.17578125 C5.04770353 60.65833399 -3.26280936 49.36349428 -13.60058594 38.64453125 C-14.26832031 37.91363281 -14.93605469 37.18273437 -15.62402344 36.4296875 C-40.84055425 9.56397429 -83.97808111 -2.30243608 -119.5745697 -3.64358521 C-166.71994932 -5.00286812 -213.48943395 3.8644798 -248.97583008 36.97338867 C-272.98310987 60.20635902 -287.02037315 94.52089925 -287.76855469 127.73828125 C-288.11563762 168.32459192 -275.85148483 206.0991207 -248.60058594 236.64453125 C-248.00503906 237.31355469 -247.40949219 237.98257812 -246.79589844 238.671875 C-237.09273744 248.93019197 -225.03828409 256.21732259 -212.60058594 262.64453125 C-211.66061768 263.13397217 -211.66061768 263.13397217 -210.70166016 263.63330078 C-188.20008406 275.18912467 -161.6383605 280.64508836 -136.46386719 280.91796875 C-135.40288818 280.93049683 -134.34190918 280.9430249 -133.2487793 280.95593262 C-97.16373255 281.29851217 -60.20387474 279.9300937 -25.71777344 267.9921875 C-19.35943469 265.81437318 -13.44239318 265.49467581 -7.22558594 268.33203125 C-2.53867504 271.0062163 0.29482512 274.71889754 2.39941406 279.64453125 C3.14793333 285.53547511 2.89174429 290.68767545 -0.60058594 295.64453125 C-5.56436797 300.93144159 -10.71175217 303.19466762 -17.60058594 305.14453125 C-18.591875 305.43368408 -19.58316406 305.72283691 -20.60449219 306.02075195 C-32.80227152 309.44342638 -45.21306593 311.85731045 -57.69335938 313.97900391 C-60.18325034 314.40311305 -62.6711781 314.83903735 -65.15625 315.29052734 C-83.2377775 318.51553529 -101.08695891 319.03357575 -119.41308594 319.08203125 C-120.51759094 319.08829529 -121.62209595 319.09455933 -122.7600708 319.10101318 C-177.57511727 319.29761432 -231.2277278 305.33798597 -271.60058594 266.64453125 C-272.468125 265.84015625 -273.33566406 265.03578125 -274.22949219 264.20703125 C-286.54681967 252.43285761 -295.80589441 238.72387205 -303.60058594 223.64453125 C-304.18066406 222.56042969 -304.76074219 221.47632813 -305.35839844 220.359375 C-317.06932975 197.073686 -324.95503793 169.71905737 -325.60058594 143.64453125 C-325.6210498 142.91476074 -325.64151367 142.18499023 -325.66259766 141.43310547 C-326.68553107 100.11843099 -316.11475745 59.08258973 -289.60058594 26.64453125 C-288.89546875 25.73832031 -288.19035156 24.83210938 -287.46386719 23.8984375 C-256.1991438 -15.67360915 -209.58350688 -34.75117994 -160.50219727 -40.53295898 C-105.73952857 -46.08871395 -43.21043269 -36.5930937 0 0 Z " fill="#FF4E5C" transform="translate(567.6005859375,203.35546875)"/>
<path d="M0 0 C5.04962778 -0.0499887 10.09910685 -0.08599384 15.14892578 -0.10986328 C16.86151646 -0.11982955 18.57409054 -0.13340747 20.28662109 -0.15087891 C46.10796668 -0.40743231 67.03579821 5.59941959 86 24 C86.61359375 24.54011719 87.2271875 25.08023438 87.859375 25.63671875 C101.6615402 38.2042866 110.01290581 58.29938153 111.16782591 76.66942158 C111.45333115 84.39771277 111.40315278 92.12911603 111.38095093 99.86135864 C111.38441095 102.48842356 111.38905553 105.11546248 111.39513266 107.74252021 C111.40591921 113.43633632 111.4056691 119.13006694 111.39799118 124.82388687 C111.38660489 133.29093163 111.39246499 141.75790479 111.4016161 150.22494912 C111.41738546 165.34986284 111.41605537 180.47473847 111.40737936 195.59965578 C111.39982493 208.83467933 111.39786622 222.06968894 111.4014473 235.3047142 C111.40167645 236.18351304 111.40190561 237.06231187 111.40214171 237.96774098 C111.40307576 241.53528362 111.40403096 245.10282626 111.405021 248.67036889 C111.41419205 282.11657393 111.40588675 315.56275476 111.38973031 349.00895607 C111.37549166 378.71089905 111.37677015 408.41280345 111.39111328 438.11474609 C111.40718314 471.50381845 111.41354406 504.89286942 111.40427649 538.28194511 C111.40331437 541.84226918 111.40237585 545.40259325 111.4014473 548.96291733 C111.40121006 549.83952703 111.40097283 550.71613673 111.40072841 551.61931036 C111.3973187 564.84600654 111.40130171 578.07268723 111.40888596 591.29938126 C111.41746743 606.33999307 111.41531121 621.38056092 111.39904372 636.42116727 C111.39024366 644.83466462 111.38964713 653.24806671 111.40098225 661.66156156 C111.40851531 667.94708386 111.40032776 674.23249418 111.38605852 680.51800273 C111.38271005 683.0581442 111.38440625 685.59829844 111.39168589 688.13843168 C111.45603367 712.45910149 111.45603367 712.45910149 108 723 C107.77635029 723.72850918 107.55270058 724.45701836 107.32227361 725.20760357 C106.74236484 727.00885745 106.09358503 728.78757405 105.4375 730.5625 C105.02371094 731.69816406 104.60992188 732.83382812 104.18359375 734.00390625 C103.22893218 736.4204918 102.21627805 738.7075681 101 741 C96.50860993 739.48907154 94.59180301 735.90134042 92.125 732.125 C91.14560798 730.66334046 90.16508623 729.20243743 89.18359375 727.7421875 C88.66651855 726.96842773 88.14944336 726.19466797 87.61669922 725.39746094 C84.8608187 721.31066741 82.02200448 717.28247181 79.1875 713.25 C77.99337407 711.54695599 76.79936474 709.84383022 75.60546875 708.140625 C75.00911621 707.29048828 74.41276367 706.44035156 73.79833984 705.56445312 C70.86275016 701.37826875 67.93156391 697.18900408 65 693 C63.83335519 691.33331803 62.6666885 689.66665138 61.5 688 C54.5 678 47.5 668 40.5 658 C39.9215332 657.1737915 39.34306641 656.34758301 38.74707031 655.49633789 C37.58951272 653.84233755 36.43260332 652.18788337 35.27636719 650.53295898 C32.22570276 646.16840732 29.1616372 641.81407705 26.078125 637.47265625 C25.43746094 636.56708984 24.79679688 635.66152344 24.13671875 634.72851562 C22.9090821 632.99381166 21.67751205 631.2618824 20.44140625 629.53320312 C19.88839844 628.75009766 19.33539062 627.96699219 18.765625 627.16015625 C18.03520996 626.13353882 18.03520996 626.13353882 17.29003906 625.08618164 C15.84969168 622.75692949 14.78447374 620.62807983 14 618 C15.34073485 615.69356102 16.62835519 613.90479252 18.3125 611.875 C27.7501024 599.57581189 33.85566745 585.18158194 37.4810819 570.14550614 C37.8083662 568.79232443 38.15330238 567.4431777 38.52284771 566.10092139 C40.71942436 557.07229079 40.28720148 547.83634218 40.27415466 538.60894775 C40.27861057 536.62371582 40.28392577 534.63848566 40.29002339 532.65325809 C40.30417205 527.21135117 40.30586727 521.76950146 40.30542648 516.32757878 C40.3070775 510.45269295 40.32014954 504.5778305 40.33161926 498.70295715 C40.35326111 486.52947516 40.36187336 474.35601043 40.36665427 462.18251148 C40.36691544 461.52128783 40.36717662 460.86006418 40.36744571 460.17880344 C40.36770598 459.5161874 40.36796626 458.85357135 40.36823442 458.17087604 C40.37132147 450.81523726 40.37782805 443.45960206 40.3844471 436.10396576 C40.40409285 413.86678367 40.42049758 391.62960542 40.42332363 369.39241409 C40.42341769 368.68160755 40.42351175 367.97080102 40.42360866 367.23845488 C40.42398713 364.35810959 40.42435112 361.47776429 40.42471164 358.59741899 C40.42498336 356.42969209 40.42526004 354.26196518 40.42553711 352.09423828 C40.42566914 351.01978309 40.42566914 351.01978309 40.42580384 349.92362174 C40.42870646 327.43911404 40.45077859 304.95469247 40.48706055 282.47021484 C40.52786582 257.18218886 40.5514828 231.89422156 40.55178314 206.60616088 C40.55187996 203.90471505 40.55204667 201.20326924 40.55226326 198.50182343 C40.55230737 197.83671005 40.55235149 197.17159668 40.55239694 196.48632836 C40.55344391 186.48086065 40.56809935 176.47548389 40.58978081 166.47003937 C40.61436277 155.07394535 40.62153178 143.67800257 40.60653328 132.28188917 C40.59939172 126.47456936 40.60010249 120.66754779 40.62294388 114.86026192 C40.6437111 109.5288818 40.64076971 104.19802585 40.62006903 98.86665031 C40.61660774 96.95270373 40.62133873 95.03871793 40.63577347 93.12482265 C40.86390838 60.75242465 30.18403672 31.68358046 7.45898438 8.53857422 C4.85644427 5.79406155 2.43136045 2.89592778 0 0 Z " fill="#FE6A53" transform="translate(728,32)"/>
<path d="M0 0 C1.80141202 0.02013295 3.60284624 0.03837149 5.40429688 0.0546875 C9.74926282 0.09805985 14.09312385 0.16669461 18.4375 0.25 C16.20830373 3.0818519 14.20642622 5.59773326 11.3125 7.75 C-3.27563375 19.99528572 -12.96039218 40.09649676 -18.3125 57.9375 C-18.52350342 58.6385083 -18.73450684 59.3395166 -18.9519043 60.06176758 C-19.14824463 60.74650146 -19.34458496 61.43123535 -19.546875 62.13671875 C-19.71928711 62.73701904 -19.89169922 63.33731934 -20.06933594 63.95581055 C-21.41514729 70.21649829 -21.70852156 76.39963848 -21.69113445 82.77528763 C-21.69376401 84.01203288 -21.69376401 84.01203288 -21.69644669 85.27376288 C-21.70109043 88.03044631 -21.69864538 90.78707662 -21.69621277 93.54376221 C-21.69808156 95.54264295 -21.70038253 97.54152333 -21.70307809 99.54040313 C-21.70919407 105.02892843 -21.70906273 110.51743849 -21.70788372 116.00596642 C-21.70767966 121.9270401 -21.71319894 127.8481089 -21.71794128 133.7691803 C-21.72624726 145.3680291 -21.72900906 156.96687321 -21.72955366 168.5657247 C-21.73001344 177.99382686 -21.73207303 187.42192737 -21.73525429 196.85002899 C-21.73615185 199.56523506 -21.73704166 202.28044112 -21.73792917 204.99564719 C-21.73815021 205.67068197 -21.73837126 206.34571675 -21.73859901 207.04120712 C-21.74475209 226.02538716 -21.74869969 245.00956663 -21.74825573 263.99374771 C-21.74824015 264.70930419 -21.74822457 265.42486066 -21.74820852 266.16210067 C-21.74812542 269.78872491 -21.74802637 273.41534915 -21.74792381 277.04197338 C-21.74790387 277.76221603 -21.74788392 278.48245868 -21.74786337 279.22452687 C-21.74782294 280.68103273 -21.74778114 282.1375386 -21.74773798 283.59404446 C-21.74712529 306.25264413 -21.75463115 328.91122883 -21.76831055 351.56982422 C-21.78367803 377.03499028 -21.79227637 402.5001465 -21.79134732 427.96531749 C-21.7912727 430.68178097 -21.79122399 433.39824446 -21.79119301 436.11470795 C-21.79117553 437.1179783 -21.79117553 437.1179783 -21.79115769 438.14151675 C-21.79112885 448.22959587 -21.79644224 458.31766321 -21.80452538 468.40573883 C-21.81362842 479.88264598 -21.81580722 491.3595286 -21.80901595 502.83643779 C-21.80574979 508.69101754 -21.80569759 514.54555022 -21.8143692 520.4001255 C-21.82223075 525.76298866 -21.82080622 531.12576739 -21.81208507 536.48862848 C-21.81054934 538.42533335 -21.812369 540.36204451 -21.81794515 542.29874197 C-21.85428859 555.82056461 -21.06342468 568.21777531 -16.4375 581.0625 C-16.13400635 581.91489258 -15.8305127 582.76728516 -15.51782227 583.64550781 C-11.69926342 594.02918884 -6.98151483 604.34010072 0.6015625 612.5390625 C1.4375 614.25 1.4375 614.25 0.9140625 616.48828125 C-1.04609328 620.15449855 -3.37470292 623.4502508 -5.8125 626.8125 C-6.90414978 628.33818121 -7.99527438 629.8642383 -9.0859375 631.390625 C-9.94203613 632.58461914 -9.94203613 632.58461914 -10.81542969 633.80273438 C-13.71835267 637.86909827 -16.57688005 641.9663203 -19.4375 646.0625 C-20.62231674 647.75656574 -21.80721317 649.45057574 -22.9921875 651.14453125 C-23.87729004 652.41031006 -23.87729004 652.41031006 -24.78027344 653.70166016 C-27.70626733 657.8854306 -30.6344831 662.06764524 -33.5625 666.25 C-34.72917759 667.91665902 -35.89584425 669.58332569 -37.0625 671.25 C-47.5625 686.25 -47.5625 686.25 -58.0625 701.25 C-58.6409668 702.07653076 -59.21943359 702.90306152 -59.81542969 703.75463867 C-60.97176179 705.40624158 -62.12865466 707.05745202 -63.28613281 708.70825195 C-66.36584489 713.10218899 -69.4329892 717.50430336 -72.484375 721.91796875 C-73.12503906 722.84158203 -73.76570313 723.76519531 -74.42578125 724.71679688 C-75.66111575 726.49818503 -76.89302386 728.28195533 -78.12109375 730.06835938 C-78.67410156 730.86435547 -79.22710937 731.66035156 -79.796875 732.48046875 C-80.52729004 733.53850708 -80.52729004 733.53850708 -81.27246094 734.61791992 C-82.5625 736.25 -82.5625 736.25 -84.5625 737.25 C-85.35046114 735.54949888 -86.11651917 733.83885345 -86.875 732.125 C-87.30425781 731.17367187 -87.73351562 730.22234375 -88.17578125 729.2421875 C-93.48686376 714.93265871 -92.98645189 700.48064479 -92.94345093 685.44642639 C-92.94691037 682.81340032 -92.95155445 680.18040023 -92.95763266 677.54738134 C-92.9684257 671.83738853 -92.96816505 666.12748093 -92.96049118 660.41748428 C-92.94911073 651.92626194 -92.95496205 643.43511104 -92.9641161 634.94388913 C-92.97989066 619.77543987 -92.97855314 604.60702859 -92.96987936 589.43857575 C-92.96232583 576.16360512 -92.96036579 562.8886484 -92.9639473 549.61367607 C-92.96417645 548.73232605 -92.96440561 547.85097603 -92.96464171 546.94291844 C-92.96557576 543.36501306 -92.96653096 539.78710769 -92.967521 536.20920232 C-92.97669353 502.66036895 -92.96838484 469.11155972 -92.95223031 435.56273008 C-92.93799523 405.77365933 -92.93926685 375.98462705 -92.95361328 346.19555664 C-92.96968676 312.7086878 -92.97604172 279.22184029 -92.96677649 245.73496813 C-92.96581437 242.16335865 -92.96487585 238.59174918 -92.9639473 235.02013969 C-92.96371006 234.14075204 -92.96347283 233.26136438 -92.96322841 232.35532861 C-92.95981983 219.0912252 -92.9637997 205.82713724 -92.97138596 192.56303596 C-92.97997173 177.47634392 -92.97780224 162.3896957 -92.96154372 147.3030091 C-92.95275013 138.86549787 -92.9521377 130.42808161 -92.96348225 121.99057289 C-92.97023081 116.34770816 -92.96598421 110.70491925 -92.95296794 105.06206571 C-92.94586264 101.85161019 -92.94499456 98.6413788 -92.95418589 95.43092311 C-93.03659913 64.24616765 -93.03659913 64.24616765 -86.375 50 C-86.07384277 49.33726074 -85.77268555 48.67452148 -85.46240234 47.99169922 C-82.55994822 41.83945055 -78.90428661 36.48616213 -74.5625 31.25 C-73.87414062 30.39921875 -73.18578125 29.5484375 -72.4765625 28.671875 C-64.97319727 19.84119967 -56.09101082 13.30555622 -45.875 7.9375 C-45.30128662 7.62409668 -44.72757324 7.31069336 -44.13647461 6.98779297 C-30.20509871 0.05452942 -15.19627505 -0.30049532 0 0 Z " fill="#FE4C5A" transform="translate(125.5625,31.75)"/>
<path d="M0 0 C4.9514807 2.98232749 9.07104539 6.7763738 13 11 C13.57105469 11.5775 14.14210938 12.155 14.73046875 12.75 C21.35210471 19.72849059 26.04499168 27.81573824 31 36 C35.12095605 42.77668329 38.20365414 47.40121805 46 50 C53.15973375 50.70556342 59.12312853 50.39509618 65 46 C70.3048169 41.32894441 73.5196631 35.47659599 76.87890625 29.359375 C80.25166832 23.32458616 84.38051526 18.14090806 89 13 C89.65871094 12.25878906 90.31742187 11.51757812 90.99609375 10.75390625 C97.40223376 3.93529848 105.99521454 -2.4924605 115.55859375 -3.30078125 C116.83863281 -3.30464844 118.11867188 -3.30851562 119.4375 -3.3125 C121.35369141 -3.33763672 121.35369141 -3.33763672 123.30859375 -3.36328125 C129.78467085 -2.72595303 133.82366158 0.12760518 138 5 C142.69772095 14.65825146 139.96587248 26.22191083 136.73193359 35.95507812 C126.70277091 63.97518041 109.39804699 88.59275428 89 110 C87.91138672 111.16789062 87.91138672 111.16789062 86.80078125 112.359375 C80.46199687 118.96764559 73.33285046 124.54579561 66 130 C64.52080078 131.15048828 64.52080078 131.15048828 63.01171875 132.32421875 C59.28726365 134.39658093 57.21083787 134.53626396 53 134 C41.66297388 129.39563724 32.14841784 120.91852005 23 113 C22.45069824 112.5265918 21.90139648 112.05318359 21.33544922 111.56542969 C-3.18575492 90.24865743 -30.86044064 57.30858976 -33.41015625 23.48046875 C-33.80344689 14.91311045 -33.62325032 6.99946684 -28 0 C-19.64492015 -7.12155429 -9.14153756 -4.04768352 0 0 Z " fill="#FFFEFE" transform="translate(383,290)"/>
</svg>
